#!OML:ASF F:\VICON\USERDATA\INSTALL\rory3\rory3.ASF
:FULLY-SPECIFIED
:DEGREES
277
root 3.52774 15.7378 -3.0555 -184.207 49.6709 -184.357
lowerback 6.66613 -0.881058 -4.30341
upperback -1.5289 -1.57648 -0.927219
thorax -5.24692 -0.650396 1.62426
lowerneck -11.6376 -8.0654 -11.1177
upperneck 21.1084 -10.3179 7.8038
head 9.58672 -4.77097 3.28588
rclavicle 1.9074e-014 5.96354e-015
rhumerus -41.7677 -10.3644 -80.9034
rradius 22.7102
rwrist 16.2038
rhand -17.1069 14.3858
rfingers 7.12502
rthumb 9.13216 -15.3965
lclavicle 1.9074e-014 5.96354e-015
lhumerus -31.9445 8.08394 81.4116
lradius 23.8713
lwrist -3.31486
lhand -13.2027 12.7361
lfingers 7.12502
lthumb 12.8978 42.3176
rfemur -26.0223 8.33845 19.3264
rtibia 30.8983
rfoot -5.24345 -19.3132
rtoes 5.42037
lfemur 15.7781 -2.07112 -27.0667
ltibia 22.7328
lfoot -1.90652 5.36313
ltoes -17.3393
278
root 3.66382 15.743 -3.13687 -184.274 49.7748 -184.409
lowerback 6.41715 -0.970591 -4.31549
upperback -1.60442 -1.68371 -0.86806
thorax -5.1762 -0.703096 1.69914
lowerneck -11.6502 -7.93756 -11.283
upperneck 21.3367 -10.0818 7.70249
head 9.64885 -4.6804 3.31203
rclavicle 1.42193e-014 -1.36167e-014
rhumerus -41.8024 -10.1343 -80.7635
rradius 22.3796
rwrist 16.6534
rhand -16.9709 14.4414
rfingers 7.12502
rthumb 9.26341 -15.3351
lclavicle 1.42193e-014 -1.36167e-014
lhumerus -32.6286 10.0953 80.3753
lradius 23.0481
lwrist -5.00734
lhand -12.952 12.5255
lfingers 7.12502
lthumb 13.1395 42.0916
rfemur -25.5628 8.10849 19.5563
rtibia 31.2112
rfoot -5.30226 -18.7109
rtoes 5.97352
lfemur 14.9445 -1.33722 -26.7643
ltibia 24.9399
lfoot -0.75483 5.61822
ltoes -15.6998
279
root 3.79725 15.7536 -3.20853 -184.083 49.822 -184.344
lowerback 6.14512 -0.845965 -4.2885
upperback -1.71506 -1.50434 -0.898267
thorax -5.14968 -0.614533 1.62932
lowerneck -11.6578 -8.04459 -11.2542
upperneck 21.5482 -10.2415 7.70959
head 9.74101 -4.74528 3.2887
rclavicle 2.51276e-015 1.80894e-014
rhumerus -42.0059 -10.6427 -80.4526
rradius 22.2931
rwrist 17.0325
rhand -16.7286 14.4315
rfingers 7.12502
rthumb 9.49717 -15.3345
lclavicle 2.51276e-015 1.80894e-014
lhumerus -33.0271 11.2534 79.5112
lradius 22.1815
lwrist -6.54763
lhand -12.7129 12.4917
lfingers 7.12502
lthumb 13.3699 42.0427
rfemur -25.2724 7.86239 19.8648
rtibia 31.4637
rfoot -5.1737 -18.3154
rtoes 6.12486
lfemur 13.7319 -0.697981 -26.3264
ltibia 27.3518
lfoot 0.523668 6.07076
ltoes -12.7996
280
root 3.92814 15.768 -3.27551 -183.192 49.8772 -183.153
lowerback 6.09889 -0.761852 -3.56091
upperback -1.75895 -1.32876 -0.70976
thorax -5.18907 -0.549209 1.39965
lowerneck -11.7709 -8.14198 -11.2301
upperneck 21.7539 -10.3743 7.69564
head 9.84747 -4.79886 3.25856
rclavicle -3.05072e-014 1.15295e-014
rhumerus -42.1288 -11.0504 -80.2159
rradius 22.271
rwrist 17.329
rhand -16.6644 14.336
rfingers 7.12502
rthumb 9.55913 -15.4272
lclavicle -3.05072e-014 1.15295e-014
lhumerus -33.309 11.932 78.8848
lradius 21.4745
lwrist -7.60074
lhand -12.3938 12.98
lfingers 7.12502
lthumb 13.6775 42.5105
rfemur -24.681 7.66883 21.0307
rtibia 31.56
rfoot -5.00229 -18.1994
rtoes 4.8541
lfemur 12.5992 -0.775373 -25.4266
ltibia 29.9689
lfoot 1.79087 7.04823
ltoes -11.0139
281
root 4.05516 15.7735 -3.34007 -182.455 49.9263 -182.002
lowerback 6.17958 -0.871892 -2.92042
upperback -1.7718 -1.4173 -0.388637
thorax -5.24945 -0.609854 1.38536
lowerneck -11.9552 -8.02838 -11.3931
upperneck 21.9728 -10.1334 7.55325
head 9.93666 -4.70924 3.26492
rclavicle -3.12899e-014 -5.56597e-015
rhumerus -42.0342 -10.6262 -80.1577
rradius 22.1942
rwrist 17.3762
rhand -16.4979 14.533
rfingers 7.12502
rthumb 9.71976 -15.2227
lclavicle -3.12899e-014 -5.56597e-015
lhumerus -33.8582 12.895 78.3373
lradius 21.174
lwrist -8.17404
lhand -12.0549 13.5207
lfingers 7.12502
lthumb 14.0041 43.0289
rfemur -23.8699 7.6255 22.1387
rtibia 31.5026
rfoot -5.292 -18.1273
rtoes 4.6659
lfemur 11.4101 0.520364 -23.8464
ltibia 32.8054
lfoot 3.52178 6.39544
ltoes -11.6494
282
root 4.17922 15.7899 -3.40473 -182.118 49.9717 -181.482
lowerback 6.22202 -1.01907 -2.68214
upperback -1.82405 -1.58728 -0.154153
thorax -5.31997 -0.697177 1.51476
lowerneck -12.1111 -7.86777 -11.6524
upperneck 22.1974 -9.81395 7.44862
head 10.0223 -4.58861 3.31307
rclavicle -9.0006e-014 -6.36111e-015
rhumerus -41.9444 -9.77627 -80.2874
rradius 22.2182
rwrist 17.0616
rhand -16.2998 14.6787
rfingers 7.12502
rthumb 9.91097 -15.068
lclavicle -9.0006e-014 -6.36111e-015
lhumerus -34.4769 14.2167 77.641
lradius 20.7336
lwrist -8.902
lhand -11.9865 13.4129
lfingers 7.12502
lthumb 14.07 42.9166
rfemur -23.1089 7.6988 22.712
rtibia 31.3665
rfoot -6.12906 -17.9559
rtoes 6.68246
lfemur 10.1478 0.541729 -23.407
ltibia 35.6434
lfoot 4.62532 6.99314
ltoes -11.6256
283
root 4.30135 15.8052 -3.47071 -181.743 49.9634 -180.922
lowerback 6.2361 -0.994098 -2.355
upperback -1.84285 -1.52323 -0.0484074
thorax -5.35538 -0.674325 1.43507
lowerneck -12.135 -7.8804 -11.6613
upperneck 22.2796 -9.81659 7.40192
head 10.0548 -4.59336 3.29755
rclavicle -1.21507e-013 -1.39149e-014
rhumerus -42.0171 -9.13578 -80.6243
rradius 22.5457
rwrist 16.2515
rhand -16.2938 14.4188
rfingers 7.12502
rthumb 9.91676 -15.3276
lclavicle -1.21507e-013 -1.39149e-014
lhumerus -34.7389 15.1068 76.9674
lradius 19.9605
lwrist -9.81812
lhand -12.0619 13.1316
lfingers 7.12502
lthumb 13.9974 42.6404
rfemur -22.3929 7.62243 23.3018
rtibia 31.2384
rfoot -6.73922 -17.7553
rtoes 7.76432
lfemur 8.87781 0.254944 -23.0998
ltibia 38.4057
lfoot 5.80282 7.92068
ltoes -9.97451
284
root 4.41915 15.8133 -3.53474 -181.48 49.8991 -180.395
lowerback 6.36151 -0.830567 -1.97312
upperback -1.8252 -1.27819 -0.0857117
thorax -5.42668 -0.565967 1.1584
lowerneck -12.149 -8.01416 -11.5629
upperneck 22.3583 -10.0644 7.55971
head 10.1151 -4.67858 3.30205
rclavicle -3.06874e-014 -2.98177e-015
rhumerus -42.1724 -9.27794 -80.7576
rradius 22.8682
rwrist 15.7777
rhand -16.4136 14.4522
rfingers 7.12502
rthumb 9.80118 -15.2997
lclavicle -3.06874e-014 -2.98177e-015
lhumerus -34.7947 15.447 76.3745
lradius 19.2619
lwrist -10.6067
lhand -11.8284 13.0917
lfingers 7.12502
lthumb 14.2224 42.5848
rfemur -21.5807 7.40813 23.8858
rtibia 31.0544
rfoot -7.11603 -17.5419
rtoes 7.71867
lfemur 7.65932 0.459987 -22.5459
ltibia 41.0521
lfoot 7.60965 8.23113
ltoes -8.55961
285
root 4.53407 15.8187 -3.59692 -180.999 49.8716 -179.506
lowerback 6.55287 -0.723259 -1.38255
upperback -1.79067 -1.08405 0.00819217
thorax -5.5141 -0.488054 0.906372
lowerneck -12.2468 -8.10729 -11.7588
upperneck 22.5538 -10.2259 7.88743
head 10.2526 -4.72639 3.42587
rclavicle -9.3435e-014 -9.93923e-016
rhumerus -42.2377 -9.55047 -80.6436
rradius 23.0332
rwrist 15.7899
rhand -16.5112 14.7796
rfingers 7.12502
rthumb 9.70694 -14.9767
lclavicle -9.3435e-014 -9.93923e-016
lhumerus -34.9594 15.9432 75.8356
lradius 18.7061
lwrist -11.4271
lhand -11.6201 13.0985
lfingers 7.12502
lthumb 14.4231 42.5773
rfemur -20.6523 7.15786 24.7599
rtibia 30.8034
rfoot -7.3463 -17.3374
rtoes 6.86925
lfemur 6.48952 0.678305 -21.7137
ltibia 43.6222
lfoot 9.48588 8.56748
ltoes -6.88015
